<svg width="373" height="56" viewBox="0 0 373 56" fill="none" xmlns="http://www.w3.org/2000/svg">
<path d="M8.21863 27.9996C8.21861 31.7959 7.77393 35.4887 6.93835 39.0298C4.75275 37.4982 2.43326 36.1452 0.000853312 34.9908C0.675605 32.7793 1.03892 30.4319 1.03894 27.9996C1.03894 25.567 0.67572 23.2191 0.000853923 21.0074C2.43319 19.853 4.75183 18.499 6.93738 16.9673C7.77333 20.5092 8.2186 24.2024 8.21863 27.9996ZM22.2977 42.1168C20.2331 43.9117 18.3247 45.8813 16.5936 48.0015C14.8609 45.8791 12.9507 43.9073 10.8837 42.1109C12.2585 37.6503 12.9999 32.9114 12.9999 27.9996C12.9998 23.087 12.2589 18.3476 10.8837 13.8863C12.9505 12.09 14.861 10.1189 16.5936 7.99664C18.3245 10.1168 20.2333 12.0856 22.2977 13.8804C20.9213 18.3435 20.1786 23.0848 20.1786 27.9996C20.1786 32.9136 20.9217 37.6543 22.2977 42.1168ZM33.1835 34.9918C30.7523 36.1458 28.4345 37.499 26.2499 39.0298C25.4143 35.4886 24.9677 31.796 24.9677 27.9996C24.9677 24.2023 25.4139 20.5093 26.2499 16.9673C28.4346 18.4984 30.7521 19.8523 33.1835 21.0064C32.5084 23.2185 32.1434 25.5666 32.1434 27.9996C32.1435 30.4323 32.5085 32.7799 33.1835 34.9918Z" fill="#F8F8FA"/>
<path d="M96.7428 22.3841C97.6821 22.3841 98.4687 22.5403 99.1022 22.8538C99.7356 23.1602 100.249 23.5414 100.642 23.9974C101.035 24.4533 101.334 24.906 101.538 25.3548H101.713V22.598H106.333V39.1751C106.333 40.536 105.979 41.6795 105.273 42.6058C104.574 43.5321 103.609 44.2302 102.379 44.7005C101.148 45.1707 99.7322 45.4065 98.1305 45.4066C95.8732 45.4066 94.1 44.9712 92.8112 44.1019C91.5224 43.2326 90.7393 42.1785 90.4625 40.9388L94.7662 40.3724C94.9555 40.8139 95.323 41.2162 95.8688 41.5794C96.4221 41.9499 97.2124 42.136 98.2389 42.136C99.251 42.136 100.086 41.9003 100.741 41.43C101.403 40.9597 101.734 40.1864 101.734 39.1107V36.1077H101.538C101.232 36.7845 100.693 37.4007 99.9215 37.9564C99.1497 38.505 98.0933 38.7796 96.7535 38.7796C95.4939 38.7796 94.347 38.4905 93.3131 37.9134C92.2866 37.3362 91.4677 36.4564 90.8561 35.2737C90.2517 34.0909 89.9489 32.5907 89.9489 30.7737C89.9489 28.907 90.2587 27.3534 90.8776 26.1136C91.5038 24.8739 92.3304 23.9444 93.3571 23.3245C94.391 22.6975 95.5195 22.3841 96.7428 22.3841ZM125.974 22.3841C127.438 22.3841 128.72 22.6443 129.819 23.1644C130.926 23.6845 131.796 24.4144 132.429 25.3548C133.07 26.2953 133.422 27.4 133.488 28.6683H129.097C128.973 27.849 128.646 27.1895 128.115 26.6907C127.591 26.1849 126.902 25.932 126.05 25.9319C124.973 25.9319 124.106 26.3565 123.451 27.2044C122.796 28.0523 122.467 29.2528 122.467 30.806C122.467 32.3735 122.792 33.5883 123.44 34.4505C124.095 35.3056 124.965 35.7337 126.05 35.7337C126.851 35.7337 127.525 35.4979 128.071 35.0276C128.617 34.5503 128.959 33.8736 129.097 32.9974H133.488C133.415 34.2514 133.066 35.3561 132.44 36.3109C131.821 37.2656 130.965 38.0099 129.873 38.5443C128.781 39.0714 127.488 39.3353 125.996 39.3353C124.277 39.3353 122.799 38.9794 121.561 38.2669C120.331 37.5472 119.384 36.5492 118.721 35.2737C118.066 33.9983 117.738 32.5306 117.738 30.8704C117.738 29.189 118.07 27.7139 118.732 26.4456C119.402 25.1702 120.352 24.1757 121.583 23.4632C122.813 22.7435 124.278 22.3841 125.974 22.3841ZM79.8405 22.3841C81.0856 22.3841 82.2506 22.5765 83.3356 22.9612C84.4203 23.346 85.2941 23.9477 85.9567 24.7669C86.6266 25.5792 86.9615 26.6377 86.9615 27.9417V39.015H82.5494V36.7386H82.4186C82.0108 37.5009 81.399 38.1242 80.5836 38.6087C79.7754 39.0861 78.7521 39.3245 77.5143 39.3245C75.9123 39.3245 74.5828 38.9145 73.527 38.095C72.4715 37.2756 71.944 36.0534 71.944 34.429C71.944 33.2036 72.239 32.2415 72.8287 31.5433C73.4185 30.8452 74.1904 30.3355 75.1442 30.015C76.1052 29.6873 77.1391 29.4741 78.2457 29.3743C79.702 29.2318 80.7435 29.0819 81.3698 28.9251C81.9959 28.7683 82.3092 28.426 82.3092 27.8987V27.8353C82.3092 27.1585 82.0906 26.6345 81.6539 26.264C81.2244 25.8935 80.6125 25.7084 79.819 25.7083C78.9816 25.7083 78.3151 25.8862 77.8199 26.2425C77.3249 26.5988 76.9967 27.0513 76.8365 27.5999L72.5338 27.2581C72.8542 25.7618 73.6477 24.575 74.9147 23.6985C76.1889 22.8221 77.8308 22.3841 79.8405 22.3841ZM56.3961 31.8323H56.6578L62.818 17.1253H68.651V39.015H64.0631V24.7669H63.8776L58.0885 38.9075H54.9645L49.1764 24.7142H48.9899V39.015H44.403V17.1253H50.236L56.3961 31.8323ZM114.688 39.015H110.036V22.598H114.688V39.015ZM82.3414 31.4046C82.1594 31.5257 81.8756 31.6323 81.4899 31.7249C81.1112 31.8175 80.7031 31.8998 80.2662 31.971C79.8368 32.0351 79.4511 32.092 79.109 32.1419C78.2935 32.2559 77.6339 32.4808 77.1315 32.8157C76.6366 33.1506 76.3893 33.6386 76.3893 34.2796C76.3893 34.9065 76.6182 35.3808 77.0768 35.7015C77.5427 36.0221 78.1329 36.1819 78.8463 36.1819C79.8657 36.1819 80.7037 35.8939 81.359 35.3167C82.0143 34.7324 82.3414 34.0089 82.3414 33.1468V31.4046ZM98.2281 26.0071C97.0778 26.0072 96.2006 26.449 95.5963 27.3323C94.9993 28.2158 94.7009 29.3559 94.7008 30.7523C94.7008 32.1702 95.0027 33.2929 95.6071 34.1194C96.2114 34.946 97.085 35.3596 98.2281 35.3597C99.3495 35.3597 100.216 34.9532 100.828 34.1409C101.447 33.3286 101.756 32.1987 101.756 30.7523C101.756 29.3131 101.45 28.1622 100.839 27.3001C100.227 26.4381 99.3567 26.0071 98.2281 26.0071ZM112.278 14.6507C113.84 14.6507 115.106 15.9169 115.106 17.4788C115.106 19.0407 113.84 20.3069 112.278 20.3069C110.716 20.3069 109.45 19.0407 109.45 17.4788C109.45 15.9169 110.716 14.6507 112.278 14.6507Z" fill="#F8F8FA"/>
<path d="M191.185 33.8784C191.206 34.4624 191.341 34.963 191.591 35.3801C191.842 35.7765 192.165 36.0998 192.561 36.3501C192.978 36.5795 193.437 36.7464 193.938 36.8507C194.459 36.9549 194.991 37.0071 195.534 37.0071C195.951 37.0071 196.389 36.9758 196.848 36.9132C197.307 36.8507 197.724 36.7359 198.099 36.5691C198.495 36.4022 198.819 36.1623 199.069 35.8495C199.319 35.5157 199.445 35.0986 199.445 34.598C199.445 33.9096 199.184 33.3882 198.662 33.0336C198.141 32.679 197.484 32.3974 196.691 32.1888C195.92 31.9594 195.075 31.7612 194.157 31.5944C193.239 31.4067 192.384 31.1564 191.591 30.8435C190.82 30.5097 190.173 30.0509 189.652 29.4668C189.13 28.8828 188.869 28.0693 188.869 27.0264C188.869 26.213 189.047 25.5142 189.401 24.9302C189.777 24.3461 190.246 23.8768 190.809 23.5222C191.393 23.1468 192.04 22.8756 192.749 22.7088C193.479 22.521 194.199 22.4272 194.908 22.4272C195.826 22.4272 196.67 22.5106 197.442 22.6775C198.214 22.8235 198.892 23.0946 199.476 23.491C200.081 23.8664 200.56 24.3879 200.915 25.0553C201.27 25.7019 201.478 26.5154 201.541 27.4957H198.881C198.84 26.9743 198.704 26.5467 198.475 26.213C198.245 25.8584 197.953 25.5768 197.599 25.3682C197.244 25.1596 196.848 25.0136 196.41 24.9302C195.993 24.8259 195.565 24.7737 195.127 24.7737C194.731 24.7737 194.324 24.805 193.907 24.8676C193.51 24.9302 193.145 25.0449 192.812 25.2118C192.478 25.3578 192.207 25.5663 191.998 25.8375C191.79 26.0878 191.685 26.4215 191.685 26.8387C191.685 27.2976 191.842 27.6835 192.155 27.9963C192.488 28.2883 192.905 28.5386 193.406 28.7472C193.907 28.935 194.47 29.1018 195.096 29.2478C195.721 29.373 196.347 29.5086 196.973 29.6546C197.64 29.8006 198.287 29.9779 198.913 30.1864C199.559 30.395 200.122 30.6766 200.602 31.0312C201.103 31.3649 201.499 31.7925 201.791 32.314C202.104 32.8354 202.26 33.482 202.26 34.2538C202.26 35.2341 202.052 36.0476 201.635 36.6942C201.238 37.3408 200.706 37.8623 200.039 38.2586C199.392 38.6549 198.652 38.926 197.818 39.0721C197.004 39.2389 196.191 39.3224 195.377 39.3224C194.48 39.3224 193.625 39.2285 192.812 39.0408C191.998 38.853 191.279 38.5506 190.653 38.1334C190.027 37.6954 189.526 37.1322 189.151 36.4439C188.776 35.7347 188.567 34.8795 188.525 33.8784H191.185Z" fill="#F8F8FA"/>
<path d="M171.106 16.6384H173.765V24.9921H173.828C174.266 24.0952 174.954 23.4486 175.893 23.0523C176.832 22.6351 177.864 22.4265 178.99 22.4265C180.242 22.4265 181.326 22.656 182.244 23.1148C183.183 23.5737 183.955 24.1995 184.559 24.9921C185.185 25.7638 185.655 26.6607 185.967 27.6828C186.28 28.7049 186.437 29.7895 186.437 30.9367C186.437 32.0839 186.28 33.1685 185.967 34.1906C185.675 35.2126 185.217 36.1095 184.591 36.8813C183.986 37.6322 183.214 38.2266 182.276 38.6647C181.358 39.1027 180.284 39.3217 179.053 39.3217C178.657 39.3217 178.208 39.28 177.708 39.1965C177.228 39.1131 176.748 38.9775 176.268 38.7898C175.789 38.6021 175.33 38.3518 174.892 38.0389C174.475 37.7052 174.12 37.2984 173.828 36.8187H173.765V38.9775H171.106V16.6384ZM183.621 30.749C183.621 29.9981 183.517 29.268 183.308 28.5588C183.12 27.8288 182.818 27.1822 182.401 26.619C182.004 26.0559 181.483 25.6074 180.836 25.2737C180.211 24.9399 179.47 24.7731 178.615 24.7731C177.718 24.7731 176.957 24.9504 176.331 25.305C175.705 25.6596 175.194 26.1289 174.798 26.7129C174.402 27.2761 174.11 27.9227 173.922 28.6527C173.755 29.3827 173.672 30.1232 173.672 30.8741C173.672 31.6667 173.765 32.4385 173.953 33.1894C174.141 33.9194 174.433 34.566 174.829 35.1292C175.246 35.6924 175.778 36.1512 176.425 36.5058C177.071 36.8396 177.854 37.0064 178.771 37.0064C179.689 37.0064 180.45 36.8291 181.055 36.4745C181.681 36.12 182.182 35.6506 182.557 35.0666C182.933 34.4826 183.204 33.8151 183.371 33.0642C183.537 32.3133 183.621 31.5416 183.621 30.749Z" fill="#F8F8FA"/>
<path d="M168.538 38.9156C168.079 39.1868 167.443 39.3224 166.629 39.3224C165.941 39.3224 165.388 39.1346 164.971 38.7592C164.575 38.3629 164.377 37.7267 164.377 36.8507C163.647 37.7267 162.791 38.3629 161.811 38.7592C160.852 39.1346 159.809 39.3224 158.682 39.3224C157.952 39.3224 157.254 39.2389 156.586 39.0721C155.939 38.9052 155.376 38.6445 154.897 38.2899C154.417 37.9353 154.031 37.4764 153.739 36.9132C153.468 36.3292 153.332 35.6304 153.332 34.817C153.332 33.8992 153.489 33.1483 153.802 32.5643C154.114 31.9803 154.521 31.5109 155.022 31.1564C155.543 30.7809 156.127 30.4993 156.774 30.3116C157.441 30.1239 158.119 29.9674 158.807 29.8423C159.538 29.6963 160.226 29.592 160.872 29.5294C161.54 29.446 162.124 29.3417 162.625 29.2165C163.125 29.0705 163.521 28.8724 163.813 28.6221C164.105 28.3509 164.251 27.965 164.251 27.4644C164.251 26.8804 164.137 26.4111 163.907 26.0565C163.699 25.7019 163.417 25.4308 163.063 25.243C162.729 25.0553 162.343 24.9302 161.905 24.8676C161.488 24.805 161.071 24.7737 160.653 24.7737C159.527 24.7737 158.588 24.9927 157.838 25.4308C157.087 25.8479 156.68 26.651 156.617 27.8399H153.958C154 26.8387 154.208 25.9939 154.584 25.3056C154.959 24.6173 155.46 24.0646 156.085 23.6474C156.711 23.2094 157.42 22.8965 158.213 22.7088C159.027 22.521 159.892 22.4272 160.81 22.4272C161.54 22.4272 162.26 22.4793 162.969 22.5836C163.699 22.6879 164.356 22.9069 164.94 23.2407C165.524 23.5535 165.993 24.002 166.348 24.586C166.702 25.17 166.88 25.9314 166.88 26.87V35.1924C166.88 35.8182 166.911 36.2771 166.973 36.5691C167.057 36.8611 167.307 37.0071 167.724 37.0071C167.954 37.0071 168.225 36.9549 168.538 36.8507V38.9156ZM164.22 30.6245C163.886 30.8748 163.448 31.0625 162.906 31.1876C162.364 31.2919 161.79 31.3858 161.185 31.4692C160.601 31.5318 160.007 31.6152 159.402 31.7195C158.797 31.803 158.255 31.949 157.775 32.1575C157.295 32.3661 156.899 32.6686 156.586 33.0649C156.294 33.4403 156.148 33.9618 156.148 34.6292C156.148 35.0673 156.232 35.4427 156.398 35.7556C156.586 36.0476 156.816 36.2875 157.087 36.4752C157.379 36.6629 157.712 36.7985 158.088 36.8819C158.463 36.9654 158.86 37.0071 159.277 37.0071C160.153 37.0071 160.904 36.8924 161.529 36.6629C162.155 36.4126 162.666 36.1102 163.063 35.7556C163.459 35.3801 163.751 34.9838 163.939 34.5667C164.126 34.1287 164.22 33.7219 164.22 33.3465V30.6245Z" fill="#F8F8FA"/>
<path d="M137.26 16.6384H140.233V36.4746H152.059V38.9776H137.26V16.6384Z" fill="#F8F8FA"/>
</svg>
