<svg width="46" height="46" viewBox="0 0 46 46" fill="none" xmlns="http://www.w3.org/2000/svg">
<path d="M34.0442 26.4829C38.2205 26.483 41.6056 29.8681 41.6057 34.0444C41.6057 38.2208 38.2205 41.6068 34.0442 41.6069H12.1975C8.02123 41.6067 4.63599 38.2208 4.63599 34.0444C4.63607 29.8682 8.02129 26.4831 12.1975 26.4829H34.0442ZM12.1975 29.8433C9.87748 29.8435 7.99642 31.7244 7.99634 34.0444C7.99634 36.3646 9.87743 38.2454 12.1975 38.2456H34.0442C36.3643 38.2455 38.2454 36.3646 38.2454 34.0444C38.2453 31.7243 36.3643 29.8434 34.0442 29.8433H12.1975ZM23.1213 4.63623C28.6897 4.63649 33.2034 9.15081 33.2034 14.7192C33.2033 20.2876 28.6897 24.802 23.1213 24.8022C17.5528 24.8022 13.0384 20.2878 13.0383 14.7192C13.0383 9.15065 17.5527 4.63623 23.1213 4.63623ZM23.1213 7.99756C19.4089 7.99756 16.3987 11.0068 16.3987 14.7192C16.3988 18.4316 19.409 21.4409 23.1213 21.4409C26.8335 21.4407 29.8429 18.4314 29.843 14.7192C29.843 11.007 26.8335 7.99782 23.1213 7.99756Z" fill="#EDEBFF"/>
</svg>
