<svg width="25" height="24" viewBox="0 0 25 24" fill="none" xmlns="http://www.w3.org/2000/svg">
<path fill-rule="evenodd" clip-rule="evenodd" d="M15.124 1.5867C14.3462 1.17688 13.393 0.99857 12.4943 1.00001C11.5971 1.00144 10.6444 1.18222 9.86907 1.60013L4.31779 4.5597C3.4968 4.99704 2.80421 5.72802 2.31934 6.51892C1.8355 7.30813 1.49976 8.25274 1.49976 9.1735V14.8253C1.49976 15.746 1.8355 16.6906 2.31934 17.4798C2.80416 18.2706 3.49625 19.0013 4.31711 19.4387L9.86998 22.4091L9.87233 22.4104C10.6472 22.8222 11.6021 23 12.4998 23C13.3975 23 14.3523 22.8222 15.1272 22.4104L20.6817 19.4391C21.5026 19.0017 22.1953 18.2706 22.6802 17.4798C23.164 16.6906 23.4998 15.746 23.4998 14.8253V9.1735C23.4998 8.25274 23.164 7.30813 22.6802 6.51892C22.1954 5.72818 21.5034 4.99754 20.6826 4.56016L15.1295 1.58964L15.124 1.5867ZM10.8168 3.36133C11.2267 3.14 11.8329 3.00107 12.4975 3.00001C13.1601 2.99895 13.771 3.13518 14.1892 3.35479L14.1917 3.35611L15.4805 4.04554L12.5 5.83384L9.52606 4.04947L10.8121 3.36383L10.8168 3.36133ZM7.46771 5.14685L5.2583 6.32476C5.11019 6.40364 4.96004 6.50699 4.81335 6.63076L12.4999 11.3281L20.1863 6.63084C20.0395 6.50704 19.8897 6.40386 19.7416 6.32497L17.5356 5.14488L13.0145 7.85752C12.6978 8.04753 12.3022 8.04753 11.9855 7.85752L7.46771 5.14685ZM21.3232 8.27993L13.4994 13.0611L13.4948 20.892C13.7597 20.8311 13.9956 20.7468 14.1878 20.6447L16.4998 19.408V15.5352C16.4998 14.8665 16.834 14.2421 17.3904 13.8711L21.4451 11.168C21.4631 11.156 21.4813 11.1447 21.4998 11.134V9.1735C21.4998 8.90818 21.4401 8.60081 21.3232 8.27993ZM21.4998 13.5352L18.4998 15.5352V18.3381L19.74 17.6747L19.7416 17.6738C20.1789 17.4409 20.6306 16.9964 20.9751 16.4345C21.3207 15.8708 21.4998 15.2849 21.4998 14.8253V13.5352ZM11.4948 20.8897L11.4994 13.0606L3.67636 8.27982C3.55943 8.60074 3.49976 8.90815 3.49976 9.1735V11.1337L7.47128 13.3401C8.10621 13.6929 8.5 14.3621 8.5 15.0885V19.4081L10.811 20.6443C11.0008 20.7451 11.2339 20.829 11.4948 20.8897ZM6.5 18.3382V15.0885L3.49976 13.4217V14.8253C3.49976 15.2849 3.67883 15.8708 4.02442 16.4345C4.36891 16.9964 4.82061 17.4409 5.25791 17.6738L5.25953 17.6747L6.5 18.3382Z" fill="white"/>
</svg>
