<svg width="23" height="22" viewBox="0 0 23 22" fill="none" xmlns="http://www.w3.org/2000/svg">
<path d="M14.417 0.163208C14.9268 -0.0263388 15.4727 -0.0516888 15.998 0.0948486C16.5182 0.240045 16.9725 0.540186 17.3379 0.931763C17.6902 1.30938 17.9585 1.77065 18.1416 2.26965L19.0479 4.24524C21.0515 4.89707 22.5 6.77907 22.5 9.00012V17.0001C22.4999 19.7614 20.2613 22.0001 17.5 22.0001H5.5C2.73865 22.0001 0.500126 19.7614 0.5 17.0001V8.3136C0.49992 7.50969 0.688675 6.70542 1.06348 6.02454C1.43733 5.34556 2.00472 4.78037 2.72949 4.51086L14.417 0.163208ZM3.92871 6.44836C3.0726 6.9767 2.5 7.92024 2.5 9.00012V17.0001C2.50013 18.6569 3.84322 20.0001 5.5 20.0001H17.5C19.1568 20.0001 20.4999 18.6569 20.5 17.0001V9.00012C20.5 7.92024 19.9274 6.9767 19.0713 6.44836H3.92871ZM16 12.0001C16.3978 12.0001 16.7792 12.1583 17.0605 12.4396C17.3418 12.7209 17.5 13.1024 17.5 13.5001C17.4999 13.8979 17.3418 14.2794 17.0605 14.5607C16.7793 14.8419 16.3978 15.0001 16 15.0001C15.6022 15.0001 15.2207 14.8419 14.9395 14.5607C14.6582 14.2794 14.5001 13.8979 14.5 13.5001C14.5 13.1024 14.6582 12.7209 14.9395 12.4396C15.2208 12.1583 15.6022 12.0001 16 12.0001ZM15.46 2.02063C15.347 1.98921 15.2335 1.993 15.1143 2.03723L9.83887 4.00012H16.7354L16.3096 3.07141L16.291 3.02942L16.2754 2.98743C16.1708 2.69137 16.0279 2.45897 15.876 2.29602C15.725 2.13419 15.5782 2.05362 15.46 2.02063Z" fill="white"/>
</svg>
