<svg width="24" height="24" viewBox="0 0 24 24" fill="none" xmlns="http://www.w3.org/2000/svg">
<path d="M14.3428 1C15.6689 1 16.9412 1.52716 17.8789 2.46484L19.5352 4.12109C20.4728 5.05878 21 6.33114 21 7.65723V18C21 20.7614 18.7614 23 16 23H8C5.23858 23 3 20.7614 3 18V6C3 3.23858 5.23858 1 8 1H14.3428ZM8 3C6.34315 3 5 4.34315 5 6V18C5 19.6569 6.34315 21 8 21H16C17.6569 21 19 19.6569 19 18V10H15C13.3431 10 12 8.65685 12 7V3H8ZM16 16C16.5523 16 17 16.4477 17 17C17 17.5523 16.5523 18 16 18H8C7.44772 18 7 17.5523 7 17C7 16.4477 7.44772 16 8 16H16ZM16 12C16.5523 12 17 12.4477 17 13C17 13.5523 16.5523 14 16 14H8C7.44772 14 7 13.5523 7 13C7 12.4477 7.44772 12 8 12H16ZM14 7C14 7.55228 14.4477 8 15 8H19V7.65723C19 6.86158 18.6837 6.09777 18.1211 5.53516L16.4648 3.87891C15.9022 3.3163 15.1384 3 14.3428 3H14V7Z" fill="#18171A"/>
</svg>
