<svg width="46" height="46" viewBox="0 0 46 46" fill="none" xmlns="http://www.w3.org/2000/svg">
<path d="M23.1216 2.78809C24.1422 2.7883 24.969 3.61517 24.9692 4.63574C24.9692 5.65652 24.1423 6.48416 23.1216 6.48438H12.0298C8.96719 6.48453 6.48486 8.96764 6.48486 12.0303V34.2129C6.4851 37.2753 8.96734 39.7577 12.0298 39.7578H34.2124C37.2749 39.7578 39.7581 37.2754 39.7583 34.2129V23.1211C39.7584 22.1004 40.5853 21.2727 41.606 21.2725C42.6268 21.2725 43.4544 22.1003 43.4546 23.1211V34.2129C43.4544 39.3172 39.3167 43.455 34.2124 43.4551H12.0298C6.92552 43.4549 2.78783 39.3171 2.7876 34.2129V12.0303C2.7876 6.92583 6.92538 2.78824 12.0298 2.78809H23.1216ZM35.6157 2.81152C37.5454 2.62756 39.3661 3.5034 41.062 5.21094C42.762 6.91155 43.6211 8.73452 43.4282 10.6582C43.2452 12.4837 42.1504 13.9343 41.0601 15.0244L29.5581 26.5244C29.1478 26.9347 28.6318 27.2579 28.1694 27.4854C27.7048 27.7139 27.1424 27.9202 26.5835 28H26.5815L22.1929 28.6211H22.189C20.9065 28.7992 19.6227 28.456 18.7046 27.5381C17.7867 26.6202 17.4435 25.337 17.6216 24.0547L17.6226 24.0498L18.2427 19.6621V19.6602C18.3225 19.1013 18.5297 18.5397 18.7583 18.0752C18.9859 17.6128 19.3088 17.0969 19.7192 16.6865L31.2212 5.18652C32.3229 4.085 33.782 2.98636 35.6157 2.81152ZM22.3325 19.3008C22.2995 19.3339 22.1905 19.4718 22.0747 19.707C21.9602 19.9397 21.9119 20.1205 21.9028 20.1826L21.2837 24.5625L21.2827 24.5645C21.2607 24.7248 21.2788 24.8225 21.2925 24.8682C21.2995 24.8916 21.307 24.9053 21.311 24.9121C21.315 24.9188 21.3174 24.9224 21.3188 24.9238C21.3203 24.9252 21.3239 24.9277 21.3306 24.9316C21.3375 24.9357 21.3511 24.9432 21.3745 24.9502C21.4202 24.9639 21.5178 24.982 21.6782 24.96L21.6802 24.959L26.061 24.3398H26.062C26.1244 24.3307 26.3044 24.2822 26.5366 24.168C26.7722 24.0521 26.9109 23.943 26.9438 23.9102L35.8013 15.0537C33.7832 14.0847 32.1582 12.452 31.1919 10.4434L22.3325 19.3008ZM35.9663 6.49219C35.4638 6.54021 34.8421 6.84923 34.0552 7.58691C34.0725 7.62641 34.0893 7.66685 34.104 7.70801L34.2642 8.21582C34.9253 10.0952 36.4663 11.5576 38.4048 12.0977C38.4929 12.1222 38.5784 12.1535 38.6597 12.1895C39.388 11.4123 39.7 10.793 39.7505 10.2891C39.7957 9.83722 39.6691 9.04637 38.4458 7.82324L38.4409 7.81836C37.2122 6.58057 36.4181 6.44912 35.9663 6.49219Z" fill="#EDEBFF"/>
</svg>
