<svg width="46" height="46" viewBox="0 0 46 46" fill="none" xmlns="http://www.w3.org/2000/svg">
<path fill-rule="evenodd" clip-rule="evenodd" d="M23.1621 30.1465C29.0671 30.1275 33.8482 25.3346 33.8482 19.4252C33.8482 13.5039 29.048 8.70375 23.1267 8.70375C17.2055 8.70375 12.4053 13.5039 12.4053 19.4252C12.4053 25.3314 17.1811 30.1221 23.0816 30.1465L23.123 30.1468L23.1621 30.1465ZM19.4962 12.5608C17.3488 13.6989 15.7993 15.8152 15.4416 18.316H18.5842C18.6665 16.1404 18.9892 14.1395 19.4962 12.5608ZM19.4961 26.2894C17.5638 25.2653 16.1157 23.4492 15.5844 21.2737H18.6217C18.7427 23.1621 19.0471 24.8913 19.4961 26.2894ZM22.3474 25.4932C21.9821 24.3972 21.7058 22.9413 21.5861 21.2737H24.6599C24.5402 22.9413 24.2639 24.3972 23.8986 25.4932C23.6485 26.2434 23.3834 26.7438 23.1607 27.0263L23.1414 27.0505L23.123 27.0727C23.1111 27.0585 23.0985 27.0431 23.0853 27.0263C22.8626 26.7438 22.5975 26.2434 22.3474 25.4932ZM26.7484 26.2942C27.1982 24.8952 27.5032 23.1643 27.6243 21.2737H30.6691C30.1369 23.4526 28.6852 25.271 26.7484 26.2942ZM27.6618 18.316H30.8119C30.4537 15.8117 28.9004 13.693 26.7482 12.556C27.2562 14.1355 27.5794 16.1382 27.6618 18.316ZM22.3474 13.3575C21.9291 14.6126 21.6275 16.3396 21.5441 18.316H24.7019C24.6185 16.3396 24.3169 14.6126 23.8986 13.3575C23.6485 12.6074 23.3834 12.107 23.1607 11.8245C23.1475 11.8077 23.1349 11.7922 23.123 11.7781C23.1111 11.7922 23.0985 11.8077 23.0853 11.8245C22.8626 12.107 22.5975 12.6074 22.3474 13.3575Z" fill="#EDEBFF"/>
<path d="M15.731 33.7424C14.9143 33.7424 14.2522 34.4045 14.2522 35.2212C14.2522 36.0379 14.9143 36.7 15.731 36.7H30.5192C31.3359 36.7 31.998 36.0379 31.998 35.2212C31.998 34.4045 31.3359 33.7424 30.5192 33.7424H15.731Z" fill="#EDEBFF"/>
<path fill-rule="evenodd" clip-rule="evenodd" d="M5.00781 10.1816C5.00781 5.28124 8.98034 1.30872 13.8807 1.30872H32.3659C37.2662 1.30872 41.2388 5.28124 41.2388 10.1816V36.0609C41.2388 40.9612 37.2662 44.9337 32.3659 44.9337H13.8807C8.98034 44.9337 5.00781 40.9612 5.00781 36.0609V10.1816ZM13.8807 4.26634C10.6138 4.26634 7.96544 6.9147 7.96544 10.1816V36.0609C7.96544 39.3278 10.6138 41.9761 13.8807 41.9761H32.3659C35.6328 41.9761 38.2811 39.3278 38.2811 36.0609V10.1816C38.2811 6.9147 35.6328 4.26634 32.3659 4.26634H13.8807Z" fill="#EDEBFF"/>
</svg>
