<svg width="24" height="24" viewBox="0 0 24 24" fill="none" xmlns="http://www.w3.org/2000/svg">
<path d="M12 1C12.5523 1 13 1.44772 13 2C13 2.55228 12.5523 3 12 3H6C4.34315 3 3 4.34315 3 6V18C3 19.6569 4.34315 21 6 21H18C19.6569 21 21 19.6569 21 18V12C21 11.4477 21.4477 11 22 11C22.5523 11 23 11.4477 23 12V18C23 20.7614 20.7614 23 18 23H6C3.23858 23 1 20.7614 1 18V6C1 3.23858 3.23858 1 6 1H12ZM22 1C22.5523 1.00003 23 1.44773 23 2V6.7998C23 7.35207 22.5523 7.79978 22 7.7998C21.4477 7.7998 21 7.35209 21 6.7998V4.41406L13.707 11.707C13.3165 12.0976 12.6835 12.0976 12.293 11.707C11.9025 11.3165 11.9025 10.6835 12.293 10.293L19.5859 3H17.2002C16.6479 3 16.2002 2.55228 16.2002 2C16.2002 1.44772 16.6479 1 17.2002 1H22Z" fill="white"/>
</svg>
