<svg width="24" height="24" viewBox="0 0 24 24" fill="none" xmlns="http://www.w3.org/2000/svg">
<path d="M15.3408 0.5C16.6669 0.5 17.9393 1.02716 18.877 1.96484L21.5332 4.62109C22.4709 5.55878 22.998 6.83114 22.998 8.15723V13.5C22.998 16.2614 20.7595 18.5 17.998 18.5H17.9756C17.7247 21.0267 15.5927 23 13 23H7C4.23858 23 2 20.7614 2 18V10C2 7.23858 4.23858 5 7 5H7.02246C7.27331 2.47333 9.40536 0.5 11.998 0.5H15.3408ZM6.99805 7C5.34209 7.00106 4 8.3438 4 10V18C4 19.6569 5.34315 21 7 21H13C14.4865 21 15.7199 19.9188 15.958 18.5H11.998C9.23662 18.5 6.99805 16.2614 6.99805 13.5V7ZM11.998 2.5C10.367 2.5 9.04094 3.80166 9 5.42285V7H8.99805V13.5C8.99805 15.1569 10.3412 16.5 11.998 16.5H17.998C19.6549 16.5 20.998 15.1569 20.998 13.5V9.5H17.0166C15.3491 9.5 14.0014 8.14012 14.0166 6.47266L14.0527 2.5H11.998ZM16.0166 6.49121C16.0117 7.04688 16.4609 7.5 17.0166 7.5H20.9248C20.8013 6.94973 20.5242 6.44025 20.1191 6.03516L17.4629 3.37891C17.0712 2.98727 16.582 2.71519 16.0527 2.58594L16.0166 6.49121Z" fill="white"/>
</svg>
