<svg width="24" height="24" viewBox="0 0 24 24" fill="none" xmlns="http://www.w3.org/2000/svg">
<path d="M12 1C18.0751 1 23 5.92487 23 12C23 18.0751 18.0751 23 12 23C10.629 23 9.28542 22.7274 8.30469 22.4658C7.80995 22.3339 7.39681 22.2024 7.10547 22.1025C7.01389 22.0711 6.93392 22.0427 6.86719 22.0186L2.78711 22.4258C1.77058 22.5273 0.95226 21.6057 1.17383 20.6084L1.95215 17.1035C1.94027 17.0748 1.9279 17.0439 1.91504 17.0117C1.81 16.7491 1.67334 16.3728 1.53809 15.8994C1.26783 14.9534 1 13.61 1 12C1 5.92487 5.92487 1 12 1ZM12 3C7.02944 3 3 7.02944 3 12C3 13.3898 3.23221 14.5466 3.46191 15.3506C3.57657 15.7518 3.69004 16.0635 3.77246 16.2695C3.81359 16.3723 3.84653 16.4492 3.86816 16.4971C3.87892 16.5209 3.88712 16.5375 3.8916 16.5469L3.89551 16.5547V16.5557L4.05273 16.8701L3.27637 20.3672L7.14453 19.9805L7.37012 20.0713L7.37402 20.0723L7.38965 20.0791C7.40498 20.085 7.42928 20.0943 7.46191 20.1064C7.52736 20.1309 7.62646 20.1663 7.75391 20.21C8.00938 20.2976 8.37777 20.4162 8.82031 20.5342C9.71455 20.7726 10.8711 21 12 21C16.9706 21 21 16.9706 21 12C21 7.02944 16.9706 3 12 3ZM7.50391 11.25C8.19407 11.2502 8.75391 11.8098 8.75391 12.5C8.75391 13.1902 8.19407 13.7498 7.50391 13.75H7.49414C6.80395 13.7498 6.24414 13.1902 6.24414 12.5C6.24414 11.8098 6.80395 11.2502 7.49414 11.25H7.50391ZM12.0049 11.25C12.695 11.2502 13.2549 11.8098 13.2549 12.5C13.2549 13.1902 12.695 13.7498 12.0049 13.75H11.9951C11.3049 13.7498 10.7451 13.1902 10.7451 12.5C10.7451 11.8098 11.3049 11.2502 11.9951 11.25H12.0049ZM16.5039 11.25C17.1941 11.2502 17.7539 11.8098 17.7539 12.5C17.7539 13.1902 17.1941 13.7498 16.5039 13.75H16.4941C15.804 13.7498 15.2441 13.1902 15.2441 12.5C15.2441 11.8098 15.804 11.2502 16.4941 11.25H16.5039Z" fill="white"/>
</svg>
