<svg width="24" height="24" viewBox="0 0 24 24" fill="none" xmlns="http://www.w3.org/2000/svg">
<path fill-rule="evenodd" clip-rule="evenodd" d="M21.8591 14.5203C22.0346 14.4688 22.224 14.517 22.3533 14.6462C22.4826 14.7755 22.5307 14.9649 22.4792 15.1404L22.0808 16.4998L22.4792 17.8591C22.5307 18.0346 22.4826 18.224 22.3533 18.3533C22.224 18.4826 22.0346 18.5307 21.8591 18.4792L20.4998 18.0808L19.1404 18.4792C18.9649 18.5307 18.7755 18.4826 18.6462 18.3533C18.517 18.224 18.4688 18.0346 18.5203 17.8591L18.9187 16.4998L18.5203 15.1404C18.4688 14.9649 18.517 14.7755 18.6462 14.6462C18.7755 14.517 18.9649 14.4688 19.1404 14.5203L20.4998 14.9187L21.8591 14.5203ZM4.85913 7.52027C5.03457 7.46881 5.22399 7.51697 5.35327 7.64624C5.48255 7.77552 5.5307 7.96494 5.47925 8.14038L5.08081 9.49976L5.47925 10.8591C5.53071 11.0346 5.48256 11.224 5.35327 11.3533C5.22399 11.4826 5.03458 11.5307 4.85913 11.4792L3.49976 11.0808L2.14038 11.4792C1.96494 11.5307 1.77552 11.4826 1.64624 11.3533C1.51697 11.224 1.46881 11.0346 1.52027 10.8591L1.9187 9.49976L1.52027 8.14038C1.46882 7.96494 1.51696 7.77552 1.64624 7.64624C1.77552 7.51696 1.96494 7.46882 2.14038 7.52027L3.49976 7.9187L4.85913 7.52027ZM10.8591 0.520266C11.0346 0.46881 11.224 0.516966 11.3533 0.646242C11.4826 0.775524 11.5307 0.964942 11.4792 1.14038L11.0808 2.49976L11.4792 3.85913C11.5307 4.03458 11.4826 4.22399 11.3533 4.35327C11.224 4.48256 11.0346 4.53071 10.8591 4.47925L9.49976 4.08081L8.14038 4.47925C7.96494 4.5307 7.77552 4.48256 7.64624 4.35327C7.51697 4.22399 7.46881 4.03457 7.52027 3.85913L7.9187 2.49976L7.52027 1.14038C7.46882 0.964944 7.51696 0.775522 7.64624 0.646242C7.77552 0.516963 7.96494 0.468819 8.14038 0.520266L9.49976 0.918703L10.8591 0.520266Z" fill="#19191A"/>
<path fill-rule="evenodd" clip-rule="evenodd" d="M22.1893 1.81079C20.9605 0.58195 18.9681 0.581951 17.7393 1.81079L1.80713 17.7429C0.578288 18.9718 0.578289 20.9641 1.80713 22.193C3.03597 23.4218 5.02831 23.4218 6.25715 22.193L22.1893 6.26081C23.4181 5.03197 23.4181 3.03963 22.1893 1.81079ZM19.1535 3.225C19.6013 2.77721 20.3273 2.77721 20.7751 3.225C21.2229 3.67279 21.2229 4.3988 20.7751 4.84659L18.018 7.60367L16.3964 5.98208L19.1535 3.225Z" fill="#19191A"/>
</svg>
