<svg width="23" height="22" viewBox="0 0 23 22" fill="none" xmlns="http://www.w3.org/2000/svg">
<path d="M22.056 11.2409C22.056 10.3365 21.9826 9.67657 21.8238 8.99219H11.4968V13.074H17.5585C17.4363 14.0884 16.7764 15.6161 15.3098 16.6426L15.2892 16.7793L18.5544 19.3088L18.7806 19.3314C20.8582 17.4126 22.056 14.5895 22.056 11.2409Z" fill="#4285F4"/>
<path d="M11.4987 22C14.4684 22 16.9615 21.0222 18.7825 19.3358L15.3117 16.647C14.3829 17.2948 13.1363 17.7469 11.4987 17.7469C8.59004 17.7469 6.12137 15.8283 5.24136 13.1763L5.11237 13.1872L1.71718 15.8148L1.67278 15.9382C3.4815 19.5312 7.19677 22 11.4987 22Z" fill="#34A853"/>
<path d="M5.24179 13.1771C5.0096 12.4927 4.87521 11.7594 4.87521 11.0017C4.87521 10.2439 5.0096 9.51066 5.22958 8.82628L5.22343 8.68052L1.78569 6.01074L1.67321 6.06424C0.927748 7.55525 0.5 9.2296 0.5 11.0017C0.5 12.7737 0.927748 14.448 1.67321 15.939L5.24179 13.1771Z" fill="#FBBC05"/>
<path d="M11.4987 4.25296C13.564 4.25296 14.9572 5.14511 15.7516 5.89066L18.8558 2.85977C16.9494 1.0877 14.4684 0 11.4987 0C7.19677 0 3.4815 2.46867 1.67278 6.06169L5.22914 8.82373C6.12137 6.17172 8.59005 4.25296 11.4987 4.25296Z" fill="#EB4335"/>
</svg>
